<svg xmlns="http://www.w3.org/2000/svg" viewBox="0 0 200 200">
<rect width="200" height="200" rx="30" ry="30" fill="#000"/>
<path fill="#fff" d="M55.5,128.2C64,108.1 75.3,91.8 92.1,78.6C115.4,60.5 142,53.7 171.3,56.2C162.8,50.5 153.4,48.2 143.7,46.5C138.8,45.7 135.1,48.3 131.2,50.5C130.5,50.8 129.7,51.4 129,50.6C128.5,49 131.1,48.3 129.9,46.5C110.8,44.9 97.5,53.4 88.8,70.5C87.8,67.8 88.9,66.1 89.4,64.2C89.9,62.4 91.6,60.9 91,57.5C70.6,69 55.1,82.6 57.4,109.3C53.9,106.2 55,102.6 52.8,100C51,109.6 51.4,118.4 55.5,128.2ZM92.3,128.8C97.6,125.5 102.4,121.7 106.4,115.6C99.4,116 93.6,117.7 87.7,115.2C105.6,113.5 118.1,102.7 130.3,90.7C126.2,88.3 120.7,90.2 117,86.5C118.2,85.4 119.5,85.5 120.6,85.7C133.2,87.3 144.2,83.6 154.1,75.9C157,73.7 160.3,72.1 163.4,70.1C167.4,67.5 171.8,65.4 176.4,61.2C150.6,59.8 127.7,65 106.8,78.1C77.1,96.9 60.1,124.1 54.9,158.7C57.1,154.5 58.9,150.1 60.6,145.7C62.2,141.3 65.1,138.7 69.7,137.3C77.2,135.1 84.8,133.2 92.3,128.8Z"/>
</svg>
